<svg version="1.1" x="0px" y="0px" xmlns="http://www.w3.org/2000/svg">
  <g transform="matrix(0.067797, 0, 0, 0.067797, -0.677971, -0.67797)">
    <g>
      <path fill="#FFFFFF" d="M220.9,35.1H30.1C19,35.1,10,44.1,10,55.2v120.5c0,11.1,9,20.1,20.1,20.1h20.1V246l50.2-50.2h120.5c11.1,0,20.1-9,20.1-20.1V55.2C241,44.1,232,35.1,220.9,35.1z M75.3,130.5c-8.3,0-15.1-6.7-15.1-15.1c0-8.3,6.7-15.1,15.1-15.1c8.3,0,15.1,6.7,15.1,15.1C90.3,123.8,83.6,130.5,75.3,130.5z M125.5,130.5c-8.3,0-15.1-6.7-15.1-15.1c0-8.3,6.7-15.1,15.1-15.1c8.3,0,15.1,6.7,15.1,15.1C140.5,123.8,133.8,130.5,125.5,130.5z M175.7,130.5c-8.3,0-15.1-6.7-15.1-15.1c0-8.3,6.7-15.1,15.1-15.1c8.3,0,15.1,6.7,15.1,15.1C190.8,123.8,184,130.5,175.7,130.5z"></path>
      <path fill="#FFFFFF" d="M246,10"></path>
    </g>
  </g>
</svg>