<svg version="1.1" x="0px" y="0px" width="19.5px" height="16px" xmlns="http://www.w3.org/2000/svg">
  <g transform="matrix(0.082739, 0, 0, 0.082739, -0.823934, -2.589729)">
    <g>
      <g>
        <path fill="#FFFFFF" d="M21,31.6c-4.2,0.6-7.5,2.9-9.5,6.5l-1.4,2.5l-0.1,48.6c-0.1,54.4-0.3,51.1,3.2,55.1c1,1.2,2.8,2.6,4,3.2c2.1,1,2.8,1.1,14.7,1.3l12.5,0.2l-9,16.3c-5,8.9-8.9,16.3-8.9,16.4c0.1,0.1,12-7.3,26.5-16.4l26.3-16.5h45.9c52.3,0,48.6,0.2,52.8-4c4.1-4.1,3.9-0.5,3.7-55.6c-0.1-47.9-0.1-48.1-1.1-50.3c-1.2-2.6-3.7-5.1-6.5-6.5l-2.2-1.1l-74.5,0C56.6,31.3,22.2,31.5,21,31.6z M65.1,76.4c11.3,5.3,11.6,21.2,0.6,27.2c-2.8,1.5-3.2,1.6-7.1,1.6c-3.6,0-4.5-0.2-6.8-1.3c-3.3-1.6-6.5-5.1-7.7-8.5c-0.8-2.1-1-3.3-0.8-6.1C43.9,78.1,55,71.6,65.1,76.4z M101.5,75.8c3.1,1.1,6.8,4.6,8.4,7.8c1.1,2.2,1.3,3.2,1.3,6.3c0,3.3-0.2,4.1-1.5,6.8c-1.7,3.4-4,5.7-7.4,7.4c-3,1.5-9.5,1.5-12.6,0c-3-1.4-6.1-4.4-7.6-7.5c-1.1-2.2-1.2-3.2-1.3-6.5c0-3.3,0.2-4.3,1.2-6.5C85.5,76.3,93.4,73,101.5,75.8z M138.8,75.7c6.2,2.2,10.4,8.7,9.9,15.4c-0.4,5.6-3.6,10.4-8.6,12.8c-2.3,1.1-3.1,1.3-6.7,1.3c-3.4,0-4.6-0.2-6.3-1.1c-3.5-1.7-5.8-4-7.4-7.3c-2.7-5.6-1.8-12.2,2.3-16.7C126.3,75.2,132.6,73.6,138.8,75.7z"></path>
        <path fill="#FFFFFF" d="M192.1,82.1v8.1H211h18.9v42.7v42.7h-59.3h-59.3v-8.1v-8.1h-7.8h-7.8l0,2.2c0,1.2,0,6.3,0,11.3c0,8.3,0.1,9.3,1.1,11.3c1.2,2.6,3.4,4.8,6,6.2l1.9,1.1l36,0.2l36,0.2l25.8,16.2c14.2,8.9,26.1,16.3,26.4,16.5c0.6,0.4,0.5,0-10.3-19.3l-7.4-13.4l12.7-0.2c12.2-0.2,12.8-0.3,14.9-1.3c2.9-1.5,5.8-4.7,6.6-7.7c0.6-2,0.7-8.9,0.6-50.8l-0.1-48.4l-1-1.9c-1.7-3.1-3.2-4.7-6-6l-2.6-1.3l-22-0.1l-22-0.1L192.1,82.1L192.1,82.1z"></path>
      </g>
    </g>
  </g>
</svg>